<svg preserveAspectRatio="none" overflow="visible" style="display: block;" width="78" height="82" viewBox="0 0 78 82" fill="none" xmlns="http://www.w3.org/2000/svg">
<path id="Vector" d="M45.1134 81.1617C59.4557 78.5195 78 69.0374 78 44.518C78 22.2048 60.2284 7.34645 47.4492 0.519243C44.6137 -0.995741 41.2941 0.996617 41.2941 4.01098V11.7212C41.2941 17.8011 38.5127 28.8989 30.7839 33.5149C26.8381 35.8716 22.5765 32.3443 22.0969 28.0419L21.7031 24.509C21.2454 20.4018 16.6939 17.9086 13.1222 20.4127C6.70557 24.9112 0 32.7888 0 44.518C0 74.5035 24.2667 82 36.3998 82C37.1055 82 37.8474 81.9806 38.6196 81.9397C32.6283 81.4691 22.9412 78.0527 22.9412 67.0058C22.9412 58.3644 29.8009 52.5184 35.0128 49.6767C36.4145 48.9122 38.0553 49.9049 38.0553 51.4026V53.8871C38.0553 55.7884 38.8555 58.7608 40.76 60.7954C42.9156 63.0977 46.0792 60.6857 46.3343 57.6577C46.4151 56.7026 47.4602 56.0937 48.3605 56.5774C51.3029 58.1578 55.0588 61.5337 55.0588 67.0058C55.0588 75.6416 49.8787 79.6142 45.1134 81.1617Z" fill="url(#paint0_radial_0_27)"/>
<defs>
<radialGradient id="paint0_radial_0_27" cx="0" cy="0" r="1" gradientUnits="userSpaceOnUse" gradientTransform="translate(39 5) rotate(90) scale(68 68)">
<stop offset="0.0384615" stop-color="#EFC139"/>
<stop offset="0.466346" stop-color="#EFC139"/>
<stop offset="0.583007" stop-color="#DD8B2D"/>
<stop offset="1" stop-color="#A14D45"/>
</radialGradient>
</defs>
</svg>
